# https://github.com/mikedh/trimesh
v 0.08489981 0.09659988 0.00000000
v 0.08051229 0.09859533 0.00000000
v 0.07210907 0.10176823 0.00000000
v 0.06809337 0.10294567 0.00000000
v 0.06417372 0.10386749 0.00000000
v 0.05653894 0.10492099 0.00000000
v 0.05282380 0.10505268 0.00000000
v 0.04680490 0.10474282 0.00000000
v 0.03914184 0.10311609 0.00000000
v 0.03494332 0.10125697 0.00000000
v 0.03311712 0.10009502 0.00000000
v 0.03149039 0.09879015 0.00000000
v 0.02888763 0.09578767 0.00000000
v 0.02715245 0.09226154 0.00000000
v 0.02628486 0.08821176 0.00000000
v 0.02617641 0.08599050 0.00000000
v 0.02646457 0.08238380 0.00000000
v 0.02876988 0.07658335 0.00000000
v 0.03078703 0.07438959 0.00000000
v 0.03360824 0.07253667 0.00000000
v 0.04234611 0.06938856 0.00000000
v 0.04826276 0.06809337 0.00000000
v 0.05770709 0.06615988 0.00000000
v 0.06193891 0.06524427 0.00000000
v 0.06954271 0.06293896 0.00000000
v 0.07600005 0.06000155 0.00000000
v 0.08131094 0.05643204 0.00000000
v 0.08353646 0.05441025 0.00000000
v 0.08548854 0.05222074 0.00000000
v 0.08861186 0.04730957 0.00000000
v 0.09069407 0.04168883 0.00000000
v 0.09173518 0.03535853 0.00000000
v 0.09186532 0.03192729 0.00000000
v 0.09168909 0.02784691 0.00000000
v 0.09027926 0.02045071 0.00000000
v 0.08745959 0.01407393 0.00000000
v 0.08323009 0.00871656 0.00000000
v 0.08058666 0.00642016 0.00000000
v 0.07760897 0.00438675 0.00000000
v 0.07066825 0.00113329 0.00000000
v 0.06241376 -0.00103568 0.00000000
v 0.05284549 -0.00212017 0.00000000
v 0.04756868 -0.00225573 0.00000000
v 0.04339961 -0.00213954 0.00000000
v 0.03466174 -0.00120998 0.00000000
v 0.03009296 -0.00039661 0.00000000
v 0.02067961 0.00190870 0.00000000
v 0.01093163 0.00510638 0.00000000
v 0.01093163 0.02121876 0.00000000
v 0.01566773 0.01871669 0.00000000
v 0.02500052 0.01468860 0.00000000
v 0.02959719 0.01316257 0.00000000
v 0.03415049 0.01198048 0.00000000
v 0.04313623 0.01062952 0.00000000
v 0.04756868 0.01046065 0.00000000
v 0.05388040 0.01078909 0.00000000
v 0.06191877 0.01251343 0.00000000
v 0.06632488 0.01448409 0.00000000
v 0.06824210 0.01571576 0.00000000
v 0.06995017 0.01710584 0.00000000
v 0.07268307 0.02030663 0.00000000
v 0.07450501 0.02406825 0.00000000
v 0.07541598 0.02839070 0.00000000
v 0.07552985 0.03076224 0.00000000
v 0.07520295 0.03478259 0.00000000
v 0.07348675 0.03994745 0.00000000
v 0.07152538 0.04281360 0.00000000
v 0.07029952 0.04407354 0.00000000
v 0.06726606 0.04632772 0.00000000
v 0.05868932 0.04993441 0.00000000
v 0.05314604 0.05128692 0.00000000
v 0.04360256 0.05314604 0.00000000
v 0.03937849 0.05407560 0.00000000
v 0.03183666 0.05630655 0.00000000
v 0.02550325 0.05903326 0.00000000
v 0.02037828 0.06225573 0.00000000
v 0.01826895 0.06405288 0.00000000
v 0.01643888 0.06600302 0.00000000
v 0.01351077 0.07044942 0.00000000
v 0.01155869 0.07562397 0.00000000
v 0.01058265 0.08152667 0.00000000
v 0.01046065 0.08475108 0.00000000
v 0.01062952 0.08848520 0.00000000
v 0.01198048 0.09534226 0.00000000
v 0.01468240 0.10138440 0.00000000
v 0.01873528 0.10661162 0.00000000
v 0.02126833 0.10891964 0.00000000
v 0.02409768 0.11098792 0.00000000
v 0.03052094 0.11429715 0.00000000
v 0.03796362 0.11650331 0.00000000
v 0.04642571 0.11760638 0.00000000
v 0.05103904 0.11774427 0.00000000
v 0.05926255 0.11737244 0.00000000
v 0.06762239 0.11625697 0.00000000
v 0.07616815 0.11442884 0.00000000
v 0.08489981 0.11186945 0.00000000
v 0.08489981 0.09659988 0.05000000
v 0.08051229 0.09859533 0.05000000
v 0.07210907 0.10176823 0.05000000
v 0.06809337 0.10294567 0.05000000
v 0.06417372 0.10386749 0.05000000
v 0.05653894 0.10492099 0.05000000
v 0.05282380 0.10505268 0.05000000
v 0.04680490 0.10474282 0.05000000
v 0.03914184 0.10311609 0.05000000
v 0.03494332 0.10125697 0.05000000
v 0.03311712 0.10009502 0.05000000
v 0.03149039 0.09879015 0.05000000
v 0.02888763 0.09578767 0.05000000
v 0.02715245 0.09226154 0.05000000
v 0.02628486 0.08821176 0.05000000
v 0.02617641 0.08599050 0.05000000
v 0.02646457 0.08238380 0.05000000
v 0.02876988 0.07658335 0.05000000
v 0.03078703 0.07438959 0.05000000
v 0.03360824 0.07253667 0.05000000
v 0.04234611 0.06938856 0.05000000
v 0.04826276 0.06809337 0.05000000
v 0.05770709 0.06615988 0.05000000
v 0.06193891 0.06524427 0.05000000
v 0.06954271 0.06293896 0.05000000
v 0.07600005 0.06000155 0.05000000
v 0.08131094 0.05643204 0.05000000
v 0.08353646 0.05441025 0.05000000
v 0.08548854 0.05222074 0.05000000
v 0.08861186 0.04730957 0.05000000
v 0.09069407 0.04168883 0.05000000
v 0.09173518 0.03535853 0.05000000
v 0.09186532 0.03192729 0.05000000
v 0.09168909 0.02784691 0.05000000
v 0.09027926 0.02045071 0.05000000
v 0.08745959 0.01407393 0.05000000
v 0.08323009 0.00871656 0.05000000
v 0.08058666 0.00642016 0.05000000
v 0.07760897 0.00438675 0.05000000
v 0.07066825 0.00113329 0.05000000
v 0.06241376 -0.00103568 0.05000000
v 0.05284549 -0.00212017 0.05000000
v 0.04756868 -0.00225573 0.05000000
v 0.04339961 -0.00213954 0.05000000
v 0.03466174 -0.00120998 0.05000000
v 0.03009296 -0.00039661 0.05000000
v 0.02067961 0.00190870 0.05000000
v 0.01093163 0.00510638 0.05000000
v 0.01093163 0.02121876 0.05000000
v 0.01566773 0.01871669 0.05000000
v 0.02500052 0.01468860 0.05000000
v 0.02959719 0.01316257 0.05000000
v 0.03415049 0.01198048 0.05000000
v 0.04313623 0.01062952 0.05000000
v 0.04756868 0.01046065 0.05000000
v 0.05388040 0.01078909 0.05000000
v 0.06191877 0.01251343 0.05000000
v 0.06632488 0.01448409 0.05000000
v 0.06824210 0.01571576 0.05000000
v 0.06995017 0.01710584 0.05000000
v 0.07268307 0.02030663 0.05000000
v 0.07450501 0.02406825 0.05000000
v 0.07541598 0.02839070 0.05000000
v 0.07552985 0.03076224 0.05000000
v 0.07520295 0.03478259 0.05000000
v 0.07348675 0.03994745 0.05000000
v 0.07152538 0.04281360 0.05000000
v 0.07029952 0.04407354 0.05000000
v 0.06726606 0.04632772 0.05000000
v 0.05868932 0.04993441 0.05000000
v 0.05314604 0.05128692 0.05000000
v 0.04360256 0.05314604 0.05000000
v 0.03937849 0.05407560 0.05000000
v 0.03183666 0.05630655 0.05000000
v 0.02550325 0.05903326 0.05000000
v 0.02037828 0.06225573 0.05000000
v 0.01826895 0.06405288 0.05000000
v 0.01643888 0.06600302 0.05000000
v 0.01351077 0.07044942 0.05000000
v 0.01155869 0.07562397 0.05000000
v 0.01058265 0.08152667 0.05000000
v 0.01046065 0.08475108 0.05000000
v 0.01062952 0.08848520 0.05000000
v 0.01198048 0.09534226 0.05000000
v 0.01468240 0.10138440 0.05000000
v 0.01873528 0.10661162 0.05000000
v 0.02126833 0.10891964 0.05000000
v 0.02409768 0.11098792 0.05000000
v 0.03052094 0.11429715 0.05000000
v 0.03796362 0.11650331 0.05000000
v 0.04642571 0.11760638 0.05000000
v 0.05103904 0.11774427 0.05000000
v 0.05926255 0.11737244 0.05000000
v 0.06762239 0.11625697 0.05000000
v 0.07616815 0.11442884 0.05000000
v 0.08489981 0.11186945 0.05000000
vn 0.44913020 -0.69766416 -0.55816375
vn -0.26850405 -0.64596507 -0.71458708
vn -0.22175337 -0.66222760 -0.71573741
vn -0.17889886 -0.67768288 -0.71326090
vn -0.12741924 -0.68446979 -0.71781992
vn -0.05991282 -0.69270624 -0.71872701
vn 0.00557757 -0.69703903 -0.71701150
vn 0.08945607 -0.68261914 -0.72527838
vn 0.21005830 -0.64901806 -0.73119838
vn 0.32553583 -0.60774263 -0.72434476
vn 0.40421647 -0.56458428 -0.71962048
vn 0.47545925 -0.49395914 -0.72797175
vn 0.56311904 -0.37358694 -0.73710905
vn 0.63971282 -0.22210305 -0.73582453
vn 0.68209805 -0.08911509 -0.72581041
vn 0.69196742 0.01070672 -0.72184934
vn 0.65271792 0.15214864 -0.74216583
vn 0.55975615 0.35163095 -0.75035240
vn 0.43843529 0.51609054 -0.73581591
vn 0.30336954 0.60701252 -0.73450850
vn 0.19162809 0.66476338 -0.72205840
vn 0.14620030 0.69025979 -0.70863735
vn 0.14593647 0.69316078 -0.70585457
vn 0.17973068 0.69310107 -0.69807434
vn 0.25457118 0.67500862 -0.69250046
vn 0.35337710 0.63273404 -0.68903719
vn 0.44577546 0.56893402 -0.69108489
vn 0.51046594 0.50572293 -0.69546304
vn 0.57787424 0.43683519 -0.68937390
vn 0.65338448 0.32421544 -0.68408557
vn 0.70319017 0.18622905 -0.68617952
vn 0.71701130 0.07227214 -0.69330479
vn 0.71599948 -0.00188064 -0.69809828
vn 0.71788416 -0.08347504 -0.69113982
vn 0.69784057 -0.21765997 -0.68238015
vn 0.62809780 -0.37847481 -0.67988968
vn 0.52598292 -0.50183930 -0.68665805
vn 0.43967313 -0.56979578 -0.69427683
vn 0.35910650 -0.62902810 -0.68946804
vn 0.24747134 -0.68293884 -0.68727904
vn 0.13285537 -0.71029004 -0.69125792
vn 0.04960455 -0.71493464 -0.69742946
vn -0.00077691 -0.71303242 -0.70113063
vn -0.04786077 -0.71408397 -0.69842210
vn -0.10051648 -0.70773260 -0.69929322
vn -0.14760047 -0.69874625 -0.69997699
vn -0.19676339 -0.68795984 -0.69856670
vn -0.65036680 -0.47112159 -0.59587538
vn -0.42903711 0.71188717 -0.55600702
vn 0.30157450 0.62953797 -0.71605501
vn 0.24815893 0.65138565 -0.71701735
vn 0.19818255 0.67079825 -0.71467012
vn 0.13916004 0.68084570 -0.71908526
vn 0.06491519 0.69111332 -0.71982525
vn -0.00484547 0.69666345 -0.71738174
vn -0.09034821 0.68230405 -0.72546426
vn -0.21189299 0.64820825 -0.73138733
vn -0.32795227 0.60635029 -0.72442159
vn -0.40724893 0.56199863 -0.71993461
vn -0.47900786 0.49044370 -0.72802229
vn -0.56581170 0.36979635 -0.73695847
vn -0.64113122 0.21915998 -0.73547240
vn -0.68259183 0.08774515 -0.72551305
vn -0.69188219 -0.01147000 -0.72191930
vn -0.66438644 -0.13534787 -0.73503171
vn -0.60272540 -0.29896986 -0.73982371
vn -0.53142535 -0.43496062 -0.72690877
vn -0.45329911 -0.51778307 -0.72554849
vn -0.33597440 -0.58873962 -0.73519172
vn -0.21567124 -0.65366975 -0.72539767
vn -0.15030261 -0.68546321 -0.71242495
vn -0.14414864 -0.69502028 -0.70439193
vn -0.17833469 -0.69232154 -0.69920499
vn -0.24490854 -0.67706998 -0.69397122
vn -0.33670887 -0.64060146 -0.69011369
vn -0.42776727 -0.58242135 -0.69123117
vn -0.49621946 -0.52062416 -0.69477819
vn -0.56946705 -0.44931154 -0.68835050
vn -0.65066930 -0.33178383 -0.68304389
vn -0.70303973 -0.18875975 -0.68564196
vn -0.71708207 -0.07256076 -0.69320144
vn -0.71620448 0.00264028 -0.69788550
vn -0.71795726 0.08646847 -0.69069572
vn -0.69652016 0.22120845 -0.68258808
vn -0.62789625 0.37639194 -0.68123081
vn -0.53295592 0.49222217 -0.68824074
vn -0.45483303 0.55663202 -0.69518898
vn -0.38045462 0.61571587 -0.69003496
vn -0.27097924 0.67462341 -0.68662472
vn -0.15016133 0.70834446 -0.68970987
vn -0.05720011 0.71570487 -0.69605653
vn 0.00547407 0.71533726 -0.69875793
vn 0.06364098 0.71385296 -0.69739786
vn 0.12227832 0.70516032 -0.69842461
vn 0.17553480 0.69341206 -0.69883278
vn 0.64398604 0.48231826 -0.59384432
vn 0.44913020 -0.69766416 0.55816375
vn -0.26850405 -0.64596507 0.71458708
vn -0.22175337 -0.66222760 0.71573741
vn -0.17889886 -0.67768288 0.71326090
vn -0.12741924 -0.68446979 0.71781992
vn -0.05991282 -0.69270624 0.71872701
vn 0.00557757 -0.69703903 0.71701150
vn 0.08945607 -0.68261914 0.72527838
vn 0.21005830 -0.64901806 0.73119838
vn 0.32553583 -0.60774263 0.72434476
vn 0.40421647 -0.56458428 0.71962048
vn 0.47545925 -0.49395914 0.72797175
vn 0.56311904 -0.37358694 0.73710905
vn 0.63971282 -0.22210305 0.73582453
vn 0.68209805 -0.08911509 0.72581041
vn 0.69196742 0.01070672 0.72184934
vn 0.65271792 0.15214864 0.74216583
vn 0.55975615 0.35163095 0.75035240
vn 0.43843529 0.51609054 0.73581591
vn 0.30336954 0.60701252 0.73450850
vn 0.19162809 0.66476338 0.72205840
vn 0.14620030 0.69025979 0.70863735
vn 0.14593647 0.69316078 0.70585457
vn 0.17973068 0.69310107 0.69807434
vn 0.25457118 0.67500862 0.69250046
vn 0.35337710 0.63273404 0.68903719
vn 0.44577546 0.56893402 0.69108489
vn 0.51046594 0.50572293 0.69546304
vn 0.57787424 0.43683519 0.68937390
vn 0.65338448 0.32421544 0.68408557
vn 0.70319017 0.18622905 0.68617952
vn 0.71701130 0.07227214 0.69330479
vn 0.71599948 -0.00188064 0.69809828
vn 0.71788416 -0.08347504 0.69113982
vn 0.69784057 -0.21765997 0.68238015
vn 0.62809780 -0.37847481 0.67988968
vn 0.52598292 -0.50183930 0.68665805
vn 0.43967313 -0.56979578 0.69427683
vn 0.35910650 -0.62902810 0.68946804
vn 0.24747134 -0.68293884 0.68727904
vn 0.13285537 -0.71029004 0.69125792
vn 0.04960455 -0.71493464 0.69742946
vn -0.00077691 -0.71303242 0.70113063
vn -0.04786077 -0.71408397 0.69842210
vn -0.10051648 -0.70773260 0.69929322
vn -0.14760047 -0.69874625 0.69997699
vn -0.19676339 -0.68795984 0.69856670
vn -0.65036680 -0.47112159 0.59587538
vn -0.42903711 0.71188717 0.55600702
vn 0.30157450 0.62953797 0.71605501
vn 0.24815893 0.65138565 0.71701735
vn 0.19818255 0.67079825 0.71467012
vn 0.13916004 0.68084570 0.71908526
vn 0.06491519 0.69111332 0.71982525
vn -0.00484547 0.69666345 0.71738174
vn -0.09034821 0.68230405 0.72546426
vn -0.21189299 0.64820825 0.73138733
vn -0.32795227 0.60635029 0.72442159
vn -0.40724893 0.56199863 0.71993461
vn -0.47900786 0.49044370 0.72802229
vn -0.56581170 0.36979635 0.73695847
vn -0.64113122 0.21915998 0.73547240
vn -0.68259183 0.08774515 0.72551305
vn -0.69188219 -0.01147000 0.72191930
vn -0.66438644 -0.13534787 0.73503171
vn -0.60272540 -0.29896986 0.73982371
vn -0.53142535 -0.43496062 0.72690877
vn -0.45329911 -0.51778307 0.72554849
vn -0.33597440 -0.58873962 0.73519172
vn -0.21567124 -0.65366975 0.72539767
vn -0.15030261 -0.68546321 0.71242495
vn -0.14414864 -0.69502028 0.70439193
vn -0.17833469 -0.69232154 0.69920499
vn -0.24490854 -0.67706998 0.69397122
vn -0.33670887 -0.64060146 0.69011369
vn -0.42776727 -0.58242135 0.69123117
vn -0.49621946 -0.52062416 0.69477819
vn -0.56946705 -0.44931154 0.68835050
vn -0.65066930 -0.33178383 0.68304389
vn -0.70303973 -0.18875975 0.68564196
vn -0.71708207 -0.07256076 0.69320144
vn -0.71620448 0.00264028 0.69788550
vn -0.71795726 0.08646847 0.69069572
vn -0.69652016 0.22120845 0.68258808
vn -0.62789625 0.37639194 0.68123081
vn -0.53295592 0.49222217 0.68824074
vn -0.45483303 0.55663202 0.69518898
vn -0.38045462 0.61571587 0.69003496
vn -0.27097924 0.67462341 0.68662472
vn -0.15016133 0.70834446 0.68970987
vn -0.05720011 0.71570487 0.69605653
vn 0.00547407 0.71533726 0.69875793
vn 0.06364098 0.71385296 0.69739786
vn 0.12227832 0.70516032 0.69842461
vn 0.17553480 0.69341206 0.69883278
vn 0.64398604 0.48231826 0.59384432
f 95//95 96//96 1//1
f 93//93 94//94 95//95
f 91//91 92//92 93//93
f 89//89 90//90 91//91
f 87//87 88//88 89//89
f 85//85 86//86 87//87
f 83//83 84//84 85//85
f 81//81 82//82 83//83
f 79//79 80//80 81//81
f 77//77 78//78 79//79
f 75//75 76//76 77//77
f 73//73 74//74 75//75
f 71//71 72//72 73//73
f 48//48 49//49 50//50
f 46//46 47//47 48//48
f 44//44 45//45 46//46
f 42//42 43//43 44//44
f 40//40 41//41 42//42
f 38//38 39//39 40//40
f 36//36 37//37 38//38
f 34//34 35//35 36//36
f 32//32 33//33 34//34
f 30//30 31//31 32//32
f 28//28 29//29 30//30
f 26//26 27//27 28//28
f 24//24 25//25 26//26
f 22//22 23//23 24//24
f 95//95 1//1 2//2
f 91//91 93//93 95//95
f 87//87 89//89 91//91
f 83//83 85//85 87//87
f 79//79 81//81 83//83
f 75//75 77//77 79//79
f 71//71 73//73 75//75
f 48//48 50//50 51//51
f 44//44 46//46 48//48
f 40//40 42//42 44//44
f 36//36 38//38 40//40
f 32//32 34//34 36//36
f 28//28 30//30 32//32
f 24//24 26//26 28//28
f 95//95 2//2 3//3
f 87//87 91//91 95//95
f 79//79 83//83 87//87
f 71//71 75//75 79//79
f 48//48 51//51 52//52
f 40//40 44//44 48//48
f 32//32 36//36 40//40
f 24//24 28//28 32//32
f 95//95 3//3 4//4
f 70//70 71//71 79//79
f 48//48 52//52 53//53
f 22//22 24//24 32//32
f 95//95 4//4 5//5
f 69//69 70//70 79//79
f 48//48 53//53 54//54
f 21//21 22//22 32//32
f 95//95 5//5 6//6
f 48//48 54//54 55//55
f 20//20 21//21 32//32
f 95//95 6//6 7//7
f 48//48 55//55 56//56
f 95//95 7//7 8//8
f 40//40 48//48 56//56
f 95//95 8//8 9//9
f 40//40 56//56 57//57
f 87//87 95//95 9//9
f 40//40 57//57 58//58
f 87//87 9//9 10//10
f 40//40 58//58 59//59
f 87//87 10//10 11//11
f 40//40 59//59 60//60
f 87//87 11//11 12//12
f 40//40 60//60 61//61
f 87//87 12//12 13//13
f 40//40 61//61 62//62
f 87//87 13//13 14//14
f 40//40 62//62 63//63
f 87//87 14//14 15//15
f 32//32 40//40 63//63
f 87//87 15//15 16//16
f 32//32 63//63 64//64
f 87//87 16//16 17//17
f 32//32 64//64 65//65
f 79//79 87//87 17//17
f 32//32 65//65 66//66
f 79//79 17//17 18//18
f 32//32 66//66 67//67
f 79//79 18//18 19//19
f 32//32 67//67 68//68
f 79//79 19//19 20//20
f 32//32 68//68 69//69
f 79//79 20//20 32//32
f 32//32 69//69 79//79
f 97//97 192//192 191//191
f 191//191 190//190 189//189
f 189//189 188//188 187//187
f 187//187 186//186 185//185
f 185//185 184//184 183//183
f 183//183 182//182 181//181
f 181//181 180//180 179//179
f 179//179 178//178 177//177
f 177//177 176//176 175//175
f 175//175 174//174 173//173
f 173//173 172//172 171//171
f 171//171 170//170 169//169
f 169//169 168//168 167//167
f 146//146 145//145 144//144
f 144//144 143//143 142//142
f 142//142 141//141 140//140
f 140//140 139//139 138//138
f 138//138 137//137 136//136
f 136//136 135//135 134//134
f 134//134 133//133 132//132
f 132//132 131//131 130//130
f 130//130 129//129 128//128
f 128//128 127//127 126//126
f 126//126 125//125 124//124
f 124//124 123//123 122//122
f 122//122 121//121 120//120
f 120//120 119//119 118//118
f 98//98 97//97 191//191
f 191//191 189//189 187//187
f 187//187 185//185 183//183
f 183//183 181//181 179//179
f 179//179 177//177 175//175
f 175//175 173//173 171//171
f 171//171 169//169 167//167
f 147//147 146//146 144//144
f 144//144 142//142 140//140
f 140//140 138//138 136//136
f 136//136 134//134 132//132
f 132//132 130//130 128//128
f 128//128 126//126 124//124
f 124//124 122//122 120//120
f 99//99 98//98 191//191
f 191//191 187//187 183//183
f 183//183 179//179 175//175
f 175//175 171//171 167//167
f 148//148 147//147 144//144
f 144//144 140//140 136//136
f 136//136 132//132 128//128
f 128//128 124//124 120//120
f 100//100 99//99 191//191
f 175//175 167//167 166//166
f 149//149 148//148 144//144
f 128//128 120//120 118//118
f 101//101 100//100 191//191
f 175//175 166//166 165//165
f 150//150 149//149 144//144
f 128//128 118//118 117//117
f 102//102 101//101 191//191
f 151//151 150//150 144//144
f 128//128 117//117 116//116
f 103//103 102//102 191//191
f 152//152 151//151 144//144
f 104//104 103//103 191//191
f 152//152 144//144 136//136
f 105//105 104//104 191//191
f 153//153 152//152 136//136
f 105//105 191//191 183//183
f 154//154 153//153 136//136
f 106//106 105//105 183//183
f 155//155 154//154 136//136
f 107//107 106//106 183//183
f 156//156 155//155 136//136
f 108//108 107//107 183//183
f 157//157 156//156 136//136
f 109//109 108//108 183//183
f 158//158 157//157 136//136
f 110//110 109//109 183//183
f 159//159 158//158 136//136
f 111//111 110//110 183//183
f 159//159 136//136 128//128
f 112//112 111//111 183//183
f 160//160 159//159 128//128
f 113//113 112//112 183//183
f 161//161 160//160 128//128
f 113//113 183//183 175//175
f 162//162 161//161 128//128
f 114//114 113//113 175//175
f 163//163 162//162 128//128
f 115//115 114//114 175//175
f 164//164 163//163 128//128
f 116//116 115//115 175//175
f 165//165 164//164 128//128
f 128//128 116//116 175//175
f 175//175 165//165 128//128
f 97//97 98//98 1//1
f 1//1 98//98 2//2
f 98//98 99//99 2//2
f 2//2 99//99 3//3
f 99//99 100//100 3//3
f 3//3 100//100 4//4
f 100//100 101//101 4//4
f 4//4 101//101 5//5
f 101//101 102//102 5//5
f 5//5 102//102 6//6
f 102//102 103//103 6//6
f 6//6 103//103 7//7
f 103//103 104//104 7//7
f 7//7 104//104 8//8
f 104//104 105//105 8//8
f 8//8 105//105 9//9
f 105//105 106//106 9//9
f 9//9 106//106 10//10
f 106//106 107//107 10//10
f 10//10 107//107 11//11
f 107//107 108//108 11//11
f 11//11 108//108 12//12
f 108//108 109//109 12//12
f 12//12 109//109 13//13
f 109//109 110//110 13//13
f 13//13 110//110 14//14
f 110//110 111//111 14//14
f 14//14 111//111 15//15
f 111//111 112//112 15//15
f 15//15 112//112 16//16
f 112//112 113//113 16//16
f 16//16 113//113 17//17
f 113//113 114//114 17//17
f 17//17 114//114 18//18
f 114//114 115//115 18//18
f 18//18 115//115 19//19
f 115//115 116//116 19//19
f 19//19 116//116 20//20
f 116//116 117//117 20//20
f 20//20 117//117 21//21
f 117//117 118//118 21//21
f 21//21 118//118 22//22
f 118//118 119//119 22//22
f 22//22 119//119 23//23
f 119//119 120//120 23//23
f 23//23 120//120 24//24
f 120//120 121//121 24//24
f 24//24 121//121 25//25
f 121//121 122//122 25//25
f 25//25 122//122 26//26
f 122//122 123//123 26//26
f 26//26 123//123 27//27
f 123//123 124//124 27//27
f 27//27 124//124 28//28
f 124//124 125//125 28//28
f 28//28 125//125 29//29
f 125//125 126//126 29//29
f 29//29 126//126 30//30
f 126//126 127//127 30//30
f 30//30 127//127 31//31
f 127//127 128//128 31//31
f 31//31 128//128 32//32
f 128//128 129//129 32//32
f 32//32 129//129 33//33
f 129//129 130//130 33//33
f 33//33 130//130 34//34
f 130//130 131//131 34//34
f 34//34 131//131 35//35
f 131//131 132//132 35//35
f 35//35 132//132 36//36
f 132//132 133//133 36//36
f 36//36 133//133 37//37
f 133//133 134//134 37//37
f 37//37 134//134 38//38
f 134//134 135//135 38//38
f 38//38 135//135 39//39
f 135//135 136//136 39//39
f 39//39 136//136 40//40
f 136//136 137//137 40//40
f 40//40 137//137 41//41
f 137//137 138//138 41//41
f 41//41 138//138 42//42
f 138//138 139//139 42//42
f 42//42 139//139 43//43
f 139//139 140//140 43//43
f 43//43 140//140 44//44
f 140//140 141//141 44//44
f 44//44 141//141 45//45
f 141//141 142//142 45//45
f 45//45 142//142 46//46
f 142//142 143//143 46//46
f 46//46 143//143 47//47
f 143//143 144//144 47//47
f 47//47 144//144 48//48
f 144//144 145//145 48//48
f 48//48 145//145 49//49
f 145//145 146//146 49//49
f 49//49 146//146 50//50
f 146//146 147//147 50//50
f 50//50 147//147 51//51
f 147//147 148//148 51//51
f 51//51 148//148 52//52
f 148//148 149//149 52//52
f 52//52 149//149 53//53
f 149//149 150//150 53//53
f 53//53 150//150 54//54
f 150//150 151//151 54//54
f 54//54 151//151 55//55
f 151//151 152//152 55//55
f 55//55 152//152 56//56
f 152//152 153//153 56//56
f 56//56 153//153 57//57
f 153//153 154//154 57//57
f 57//57 154//154 58//58
f 154//154 155//155 58//58
f 58//58 155//155 59//59
f 155//155 156//156 59//59
f 59//59 156//156 60//60
f 156//156 157//157 60//60
f 60//60 157//157 61//61
f 157//157 158//158 61//61
f 61//61 158//158 62//62
f 158//158 159//159 62//62
f 62//62 159//159 63//63
f 159//159 160//160 63//63
f 63//63 160//160 64//64
f 160//160 161//161 64//64
f 64//64 161//161 65//65
f 161//161 162//162 65//65
f 65//65 162//162 66//66
f 162//162 163//163 66//66
f 66//66 163//163 67//67
f 163//163 164//164 67//67
f 67//67 164//164 68//68
f 164//164 165//165 68//68
f 68//68 165//165 69//69
f 165//165 166//166 69//69
f 69//69 166//166 70//70
f 166//166 167//167 70//70
f 70//70 167//167 71//71
f 167//167 168//168 71//71
f 71//71 168//168 72//72
f 168//168 169//169 72//72
f 72//72 169//169 73//73
f 169//169 170//170 73//73
f 73//73 170//170 74//74
f 170//170 171//171 74//74
f 74//74 171//171 75//75
f 171//171 172//172 75//75
f 75//75 172//172 76//76
f 172//172 173//173 76//76
f 76//76 173//173 77//77
f 173//173 174//174 77//77
f 77//77 174//174 78//78
f 174//174 175//175 78//78
f 78//78 175//175 79//79
f 175//175 176//176 79//79
f 79//79 176//176 80//80
f 176//176 177//177 80//80
f 80//80 177//177 81//81
f 177//177 178//178 81//81
f 81//81 178//178 82//82
f 178//178 179//179 82//82
f 82//82 179//179 83//83
f 179//179 180//180 83//83
f 83//83 180//180 84//84
f 180//180 181//181 84//84
f 84//84 181//181 85//85
f 181//181 182//182 85//85
f 85//85 182//182 86//86
f 182//182 183//183 86//86
f 86//86 183//183 87//87
f 183//183 184//184 87//87
f 87//87 184//184 88//88
f 184//184 185//185 88//88
f 88//88 185//185 89//89
f 185//185 186//186 89//89
f 89//89 186//186 90//90
f 186//186 187//187 90//90
f 90//90 187//187 91//91
f 187//187 188//188 91//91
f 91//91 188//188 92//92
f 188//188 189//189 92//92
f 92//92 189//189 93//93
f 189//189 190//190 93//93
f 93//93 190//190 94//94
f 190//190 191//191 94//94
f 94//94 191//191 95//95
f 192//192 97//97 96//96
f 96//96 97//97 1//1
f 191//191 192//192 95//95
f 95//95 192//192 96//96

